# xmcd
#
# Track frame offsets: 
#        150
#        11788
#        26580
#        41350
#        56944
#        68019
#        79867
#        92718
#        103168
#        117293
#        127820
#        141218
#        153293
#        166500
#        180900
#        191763
#        203635
#        213074
#
# Disc length: 3039 seconds
#
# Revision: 1
# Processed by: cddbd v1.5.2PL0 Copyright (c) Steve Scherf et al.
# Submitted via: ExactAudioCopy v0.99pb4
#
DISCID=e60bdd12
DTITLE=Ella Fitzgerald - Jukebox Ella - The Complete Verve Singles Vol
DTITLE=ume 1 [CD1]
DYEAR=2003
DGENRE=Jazz
TTITLE0=Stay There
TTITLE1=The Sun Forgot To Shine This Morning
TTITLE2=Too Young For The Blues
TTITLE3=It's Only A Man
TTITLE4=Beale Street Blues
TTITLE5=(The End Of) A Beautiful Friendship
TTITLE6=The Silent Treatment
TTITLE7=Hear My Heart
TTITLE8=Hotta Chocolatta
TTITLE9=A-Tisket, A-Tasket
TTITLE10=Teach Me How To Cry 
TTITLE11=Swingin' Shepherd Blues
TTITLE12=Your Red Wagon
TTITLE13=Travelin' Light
TTITLE14=Oh, What A Night For Love
TTITLE15=Dreams Are Made For Children
TTITLE16=But Not For Me
TTITLE17=The Christmas Song
EXTD=
EXTT0=
EXTT1=
EXTT2=
EXTT3=
EXTT4=
EXTT5=
EXTT6=
EXTT7=
EXTT8=
EXTT9=
EXTT10=
EXTT11=
EXTT12=
EXTT13=
EXTT14=
EXTT15=
EXTT16=
EXTT17=
PLAYORDER=
